# xmcd
#
# Track frame offsets:
#	150
#	18030
#	40148
#	72410
#
# Disc length: 2428 seconds
#
# Revision: 1
# Processed by: cddbd v1.5.2PL0 Copyright (c) Steve Scherf et al.
# Submitted via: audiograbber 1.83.01
#
DISCID=29097a04
DTITLE=Lady Gaga - Poker Face
DYEAR=2009
DGENRE=Dance
TTITLE0=Poker Face [Album Version]
TTITLE1=Poker Face [Space Cowboy Remix]
TTITLE2=Just Dance [Robots To Mars Mix]
TTITLE3=Daten-CD
EXTD=
EXTT0=
EXTT1=
EXTT2=
EXTT3=
PLAYORDER=
